<mxfile host="app.diagrams.net" agent="Mozilla/5.0 (Windows NT 10.0; Win64; x64) AppleWebKit/537.36 (KHTML, like Gecko) Chrome/127.0.0.0 Safari/537.36 Edg/127.0.0.0" version="24.7.6" pages="2">
  <diagram id="C5RBs43oDa-KdzZeNtuy" name="Page-1">
    <mxGraphModel dx="1026" dy="1626" grid="1" gridSize="10" guides="1" tooltips="1" connect="1" arrows="1" fold="1" page="1" pageScale="1" pageWidth="827" pageHeight="1169" math="0" shadow="0">
      <root>
        <mxCell id="WIyWlLk6GJQsqaUBKTNV-0" />
        <mxCell id="WIyWlLk6GJQsqaUBKTNV-1" parent="WIyWlLk6GJQsqaUBKTNV-0" />
        <mxCell id="9yqcFfySSfIQWR7BFVH3-19" style="edgeStyle=orthogonalEdgeStyle;rounded=0;orthogonalLoop=1;jettySize=auto;html=1;entryX=0;entryY=0.5;entryDx=0;entryDy=0;" edge="1" parent="WIyWlLk6GJQsqaUBKTNV-1" source="WIyWlLk6GJQsqaUBKTNV-3" target="WIyWlLk6GJQsqaUBKTNV-7">
          <mxGeometry relative="1" as="geometry" />
        </mxCell>
        <mxCell id="9yqcFfySSfIQWR7BFVH3-29" value="" style="edgeStyle=orthogonalEdgeStyle;rounded=0;orthogonalLoop=1;jettySize=auto;html=1;" edge="1" parent="WIyWlLk6GJQsqaUBKTNV-1" source="WIyWlLk6GJQsqaUBKTNV-3" target="9yqcFfySSfIQWR7BFVH3-25">
          <mxGeometry relative="1" as="geometry" />
        </mxCell>
        <mxCell id="WIyWlLk6GJQsqaUBKTNV-3" value="Database/Schema (managed) Creation" style="rounded=1;whiteSpace=wrap;html=1;fontSize=12;glass=0;strokeWidth=1;shadow=0;" parent="WIyWlLk6GJQsqaUBKTNV-1" vertex="1">
          <mxGeometry x="40" y="80" width="120" height="40" as="geometry" />
        </mxCell>
        <mxCell id="9yqcFfySSfIQWR7BFVH3-10" value="" style="edgeStyle=orthogonalEdgeStyle;rounded=0;orthogonalLoop=1;jettySize=auto;html=1;" edge="1" parent="WIyWlLk6GJQsqaUBKTNV-1" source="WIyWlLk6GJQsqaUBKTNV-7" target="9yqcFfySSfIQWR7BFVH3-2">
          <mxGeometry relative="1" as="geometry" />
        </mxCell>
        <mxCell id="WIyWlLk6GJQsqaUBKTNV-7" value="Access Roles Creation RW" style="rounded=1;whiteSpace=wrap;html=1;fontSize=12;glass=0;strokeWidth=1;shadow=0;" parent="WIyWlLk6GJQsqaUBKTNV-1" vertex="1">
          <mxGeometry x="280" y="80" width="120" height="40" as="geometry" />
        </mxCell>
        <mxCell id="9yqcFfySSfIQWR7BFVH3-1" value="Create role in access.cargill.com" style="rounded=1;whiteSpace=wrap;html=1;fontSize=12;glass=0;strokeWidth=1;shadow=0;" vertex="1" parent="WIyWlLk6GJQsqaUBKTNV-1">
          <mxGeometry x="440" y="-40" width="160" height="40" as="geometry" />
        </mxCell>
        <mxCell id="9yqcFfySSfIQWR7BFVH3-23" value="" style="edgeStyle=orthogonalEdgeStyle;rounded=0;orthogonalLoop=1;jettySize=auto;html=1;" edge="1" parent="WIyWlLk6GJQsqaUBKTNV-1" source="9yqcFfySSfIQWR7BFVH3-2" target="9yqcFfySSfIQWR7BFVH3-22">
          <mxGeometry relative="1" as="geometry" />
        </mxCell>
        <mxCell id="9yqcFfySSfIQWR7BFVH3-27" style="edgeStyle=orthogonalEdgeStyle;rounded=0;orthogonalLoop=1;jettySize=auto;html=1;entryX=1;entryY=0.5;entryDx=0;entryDy=0;" edge="1" parent="WIyWlLk6GJQsqaUBKTNV-1" target="9yqcFfySSfIQWR7BFVH3-25">
          <mxGeometry relative="1" as="geometry">
            <mxPoint x="445" y="190" as="sourcePoint" />
            <mxPoint x="165" y="185" as="targetPoint" />
            <Array as="points" />
          </mxGeometry>
        </mxCell>
        <mxCell id="9yqcFfySSfIQWR7BFVH3-2" value="Create Functional role&amp;nbsp;&lt;div&gt;Ex: Devloper_FR&lt;/div&gt;" style="rounded=1;whiteSpace=wrap;html=1;fontSize=12;glass=0;strokeWidth=1;shadow=0;" vertex="1" parent="WIyWlLk6GJQsqaUBKTNV-1">
          <mxGeometry x="440" y="160" width="120" height="50" as="geometry" />
        </mxCell>
        <mxCell id="9yqcFfySSfIQWR7BFVH3-4" value="SCIM Provisioning" style="text;strokeColor=none;align=center;fillColor=none;html=1;verticalAlign=middle;whiteSpace=wrap;rounded=0;" vertex="1" parent="WIyWlLk6GJQsqaUBKTNV-1">
          <mxGeometry x="530" y="70" width="60" height="30" as="geometry" />
        </mxCell>
        <mxCell id="9yqcFfySSfIQWR7BFVH3-8" value="" style="edgeStyle=orthogonalEdgeStyle;rounded=0;orthogonalLoop=1;jettySize=auto;html=1;" edge="1" parent="WIyWlLk6GJQsqaUBKTNV-1" source="9yqcFfySSfIQWR7BFVH3-6" target="WIyWlLk6GJQsqaUBKTNV-3">
          <mxGeometry relative="1" as="geometry" />
        </mxCell>
        <mxCell id="9yqcFfySSfIQWR7BFVH3-17" style="edgeStyle=orthogonalEdgeStyle;rounded=0;orthogonalLoop=1;jettySize=auto;html=1;entryX=0.5;entryY=0;entryDx=0;entryDy=0;" edge="1" parent="WIyWlLk6GJQsqaUBKTNV-1" source="9yqcFfySSfIQWR7BFVH3-6" target="WIyWlLk6GJQsqaUBKTNV-7">
          <mxGeometry relative="1" as="geometry" />
        </mxCell>
        <mxCell id="9yqcFfySSfIQWR7BFVH3-6" value="Schema/Database Provisioning Process" style="rounded=1;whiteSpace=wrap;html=1;fontSize=12;glass=0;strokeWidth=1;shadow=0;" vertex="1" parent="WIyWlLk6GJQsqaUBKTNV-1">
          <mxGeometry x="160" y="-40" width="120" height="40" as="geometry" />
        </mxCell>
        <mxCell id="9yqcFfySSfIQWR7BFVH3-16" style="edgeStyle=orthogonalEdgeStyle;rounded=0;orthogonalLoop=1;jettySize=auto;html=1;entryX=0.661;entryY=-0.007;entryDx=0;entryDy=0;entryPerimeter=0;" edge="1" parent="WIyWlLk6GJQsqaUBKTNV-1" source="9yqcFfySSfIQWR7BFVH3-1" target="9yqcFfySSfIQWR7BFVH3-2">
          <mxGeometry relative="1" as="geometry" />
        </mxCell>
        <mxCell id="9yqcFfySSfIQWR7BFVH3-20" value="granted access to&amp;nbsp;" style="text;strokeColor=none;align=center;fillColor=none;html=1;verticalAlign=middle;whiteSpace=wrap;rounded=0;" vertex="1" parent="WIyWlLk6GJQsqaUBKTNV-1">
          <mxGeometry x="190" y="70" width="60" height="30" as="geometry" />
        </mxCell>
        <mxCell id="9yqcFfySSfIQWR7BFVH3-21" value="granted role to&amp;nbsp;" style="text;strokeColor=none;align=center;fillColor=none;html=1;verticalAlign=middle;whiteSpace=wrap;rounded=0;" vertex="1" parent="WIyWlLk6GJQsqaUBKTNV-1">
          <mxGeometry x="420" y="70" width="60" height="30" as="geometry" />
        </mxCell>
        <mxCell id="9yqcFfySSfIQWR7BFVH3-22" value="User" style="rounded=1;whiteSpace=wrap;html=1;fontSize=12;glass=0;strokeWidth=1;shadow=0;" vertex="1" parent="WIyWlLk6GJQsqaUBKTNV-1">
          <mxGeometry x="440" y="280" width="120" height="40" as="geometry" />
        </mxCell>
        <mxCell id="9yqcFfySSfIQWR7BFVH3-24" value="granted to&amp;nbsp;" style="text;strokeColor=none;align=center;fillColor=none;html=1;verticalAlign=middle;whiteSpace=wrap;rounded=0;" vertex="1" parent="WIyWlLk6GJQsqaUBKTNV-1">
          <mxGeometry x="510" y="230" width="60" height="30" as="geometry" />
        </mxCell>
        <mxCell id="9yqcFfySSfIQWR7BFVH3-25" value="Table/View" style="rounded=1;whiteSpace=wrap;html=1;fontSize=12;glass=0;strokeWidth=1;shadow=0;" vertex="1" parent="WIyWlLk6GJQsqaUBKTNV-1">
          <mxGeometry x="40" y="170" width="120" height="40" as="geometry" />
        </mxCell>
        <mxCell id="9yqcFfySSfIQWR7BFVH3-28" value="Created" style="text;strokeColor=none;align=center;fillColor=none;html=1;verticalAlign=middle;whiteSpace=wrap;rounded=0;" vertex="1" parent="WIyWlLk6GJQsqaUBKTNV-1">
          <mxGeometry x="260" y="160" width="60" height="30" as="geometry" />
        </mxCell>
        <mxCell id="9yqcFfySSfIQWR7BFVH3-30" value="under" style="text;strokeColor=none;align=center;fillColor=none;html=1;verticalAlign=middle;whiteSpace=wrap;rounded=0;" vertex="1" parent="WIyWlLk6GJQsqaUBKTNV-1">
          <mxGeometry x="100" y="130" width="60" height="30" as="geometry" />
        </mxCell>
        <mxCell id="9yqcFfySSfIQWR7BFVH3-35" value="Developer_FR is the table owner" style="text;strokeColor=none;align=center;fillColor=none;html=1;verticalAlign=middle;whiteSpace=wrap;rounded=0;" vertex="1" parent="WIyWlLk6GJQsqaUBKTNV-1">
          <mxGeometry x="180" y="190" width="250" height="30" as="geometry" />
        </mxCell>
        <mxCell id="9yqcFfySSfIQWR7BFVH3-36" value="1" style="text;strokeColor=none;align=center;fillColor=none;html=1;verticalAlign=middle;whiteSpace=wrap;rounded=0;" vertex="1" parent="WIyWlLk6GJQsqaUBKTNV-1">
          <mxGeometry x="420" y="-60" width="60" height="30" as="geometry" />
        </mxCell>
        <mxCell id="9yqcFfySSfIQWR7BFVH3-37" value="2" style="text;strokeColor=none;align=center;fillColor=none;html=1;verticalAlign=middle;whiteSpace=wrap;rounded=0;" vertex="1" parent="WIyWlLk6GJQsqaUBKTNV-1">
          <mxGeometry x="420" y="140" width="60" height="30" as="geometry" />
        </mxCell>
        <mxCell id="9yqcFfySSfIQWR7BFVH3-38" value="3" style="text;strokeColor=none;align=center;fillColor=none;html=1;verticalAlign=middle;whiteSpace=wrap;rounded=0;" vertex="1" parent="WIyWlLk6GJQsqaUBKTNV-1">
          <mxGeometry x="140" y="-60" width="60" height="30" as="geometry" />
        </mxCell>
        <mxCell id="9yqcFfySSfIQWR7BFVH3-39" value="4" style="text;strokeColor=none;align=center;fillColor=none;html=1;verticalAlign=middle;whiteSpace=wrap;rounded=0;" vertex="1" parent="WIyWlLk6GJQsqaUBKTNV-1">
          <mxGeometry x="260" y="60" width="60" height="30" as="geometry" />
        </mxCell>
        <mxCell id="9yqcFfySSfIQWR7BFVH3-40" value="4" style="text;strokeColor=none;align=center;fillColor=none;html=1;verticalAlign=middle;whiteSpace=wrap;rounded=0;" vertex="1" parent="WIyWlLk6GJQsqaUBKTNV-1">
          <mxGeometry x="20" y="60" width="60" height="30" as="geometry" />
        </mxCell>
        <mxCell id="9yqcFfySSfIQWR7BFVH3-41" value="5" style="text;strokeColor=none;align=center;fillColor=none;html=1;verticalAlign=middle;whiteSpace=wrap;rounded=0;" vertex="1" parent="WIyWlLk6GJQsqaUBKTNV-1">
          <mxGeometry x="380" y="80" width="60" height="30" as="geometry" />
        </mxCell>
        <mxCell id="9yqcFfySSfIQWR7BFVH3-42" value="6" style="text;strokeColor=none;align=center;fillColor=none;html=1;verticalAlign=middle;whiteSpace=wrap;rounded=0;" vertex="1" parent="WIyWlLk6GJQsqaUBKTNV-1">
          <mxGeometry x="480" y="210" width="60" height="30" as="geometry" />
        </mxCell>
        <mxCell id="9yqcFfySSfIQWR7BFVH3-45" value="7" style="text;strokeColor=none;align=center;fillColor=none;html=1;verticalAlign=middle;whiteSpace=wrap;rounded=0;" vertex="1" parent="WIyWlLk6GJQsqaUBKTNV-1">
          <mxGeometry x="150" y="170" width="60" height="30" as="geometry" />
        </mxCell>
        <mxCell id="9yqcFfySSfIQWR7BFVH3-47" value="Access roles granted privileges to all tables and all future tables.&lt;br&gt;So, when any new functional roles granted to RW role it will automatically have access to all present and future tables." style="strokeWidth=2;html=1;shape=mxgraph.flowchart.document2;whiteSpace=wrap;size=0.25;" vertex="1" parent="WIyWlLk6GJQsqaUBKTNV-1">
          <mxGeometry x="640" y="-60" width="150" height="235" as="geometry" />
        </mxCell>
      </root>
    </mxGraphModel>
  </diagram>
  <diagram id="15POkQhbPOfNYnhat-F8" name="Page-2">
    <mxGraphModel dx="2235" dy="1671" grid="1" gridSize="10" guides="1" tooltips="1" connect="1" arrows="1" fold="1" page="1" pageScale="1" pageWidth="850" pageHeight="1100" math="0" shadow="0">
      <root>
        <mxCell id="0" />
        <mxCell id="1" parent="0" />
        <mxCell id="bgkaT_zfcqGi3R_-l6v8-1" style="edgeStyle=orthogonalEdgeStyle;rounded=0;orthogonalLoop=1;jettySize=auto;html=1;entryX=0;entryY=0.5;entryDx=0;entryDy=0;" edge="1" parent="1" source="bgkaT_zfcqGi3R_-l6v8-3" target="bgkaT_zfcqGi3R_-l6v8-5">
          <mxGeometry relative="1" as="geometry" />
        </mxCell>
        <mxCell id="bgkaT_zfcqGi3R_-l6v8-2" value="" style="edgeStyle=orthogonalEdgeStyle;rounded=0;orthogonalLoop=1;jettySize=auto;html=1;" edge="1" parent="1" source="bgkaT_zfcqGi3R_-l6v8-3" target="bgkaT_zfcqGi3R_-l6v8-19">
          <mxGeometry relative="1" as="geometry" />
        </mxCell>
        <mxCell id="bgkaT_zfcqGi3R_-l6v8-3" value="Database/Schema (managed) Creation" style="rounded=1;whiteSpace=wrap;html=1;fontSize=12;glass=0;strokeWidth=1;shadow=0;" vertex="1" parent="1">
          <mxGeometry x="40" y="80" width="120" height="40" as="geometry" />
        </mxCell>
        <mxCell id="bgkaT_zfcqGi3R_-l6v8-4" value="" style="edgeStyle=orthogonalEdgeStyle;rounded=0;orthogonalLoop=1;jettySize=auto;html=1;" edge="1" parent="1" source="bgkaT_zfcqGi3R_-l6v8-5" target="bgkaT_zfcqGi3R_-l6v8-9">
          <mxGeometry relative="1" as="geometry" />
        </mxCell>
        <mxCell id="bgkaT_zfcqGi3R_-l6v8-5" value="Access Roles Creation RW" style="rounded=1;whiteSpace=wrap;html=1;fontSize=12;glass=0;strokeWidth=1;shadow=0;" vertex="1" parent="1">
          <mxGeometry x="280" y="80" width="120" height="40" as="geometry" />
        </mxCell>
        <mxCell id="bgkaT_zfcqGi3R_-l6v8-6" value="Create role in access.cargill.com" style="rounded=1;whiteSpace=wrap;html=1;fontSize=12;glass=0;strokeWidth=1;shadow=0;" vertex="1" parent="1">
          <mxGeometry x="440" y="-40" width="160" height="40" as="geometry" />
        </mxCell>
        <mxCell id="bgkaT_zfcqGi3R_-l6v8-7" value="" style="edgeStyle=orthogonalEdgeStyle;rounded=0;orthogonalLoop=1;jettySize=auto;html=1;" edge="1" parent="1" source="bgkaT_zfcqGi3R_-l6v8-9" target="bgkaT_zfcqGi3R_-l6v8-17">
          <mxGeometry relative="1" as="geometry" />
        </mxCell>
        <mxCell id="bgkaT_zfcqGi3R_-l6v8-8" style="edgeStyle=orthogonalEdgeStyle;rounded=0;orthogonalLoop=1;jettySize=auto;html=1;entryX=1;entryY=0.5;entryDx=0;entryDy=0;" edge="1" parent="1" target="bgkaT_zfcqGi3R_-l6v8-19">
          <mxGeometry relative="1" as="geometry">
            <mxPoint x="445" y="190" as="sourcePoint" />
            <mxPoint x="165" y="185" as="targetPoint" />
            <Array as="points" />
          </mxGeometry>
        </mxCell>
        <mxCell id="bgkaT_zfcqGi3R_-l6v8-9" value="Create Functional role&amp;nbsp;&lt;div&gt;Ex: Devloper_FR&lt;/div&gt;" style="rounded=1;whiteSpace=wrap;html=1;fontSize=12;glass=0;strokeWidth=1;shadow=0;" vertex="1" parent="1">
          <mxGeometry x="440" y="160" width="120" height="50" as="geometry" />
        </mxCell>
        <mxCell id="bgkaT_zfcqGi3R_-l6v8-10" value="SCIM Provisioning" style="text;strokeColor=none;align=center;fillColor=none;html=1;verticalAlign=middle;whiteSpace=wrap;rounded=0;" vertex="1" parent="1">
          <mxGeometry x="530" y="70" width="60" height="30" as="geometry" />
        </mxCell>
        <mxCell id="bgkaT_zfcqGi3R_-l6v8-11" value="" style="edgeStyle=orthogonalEdgeStyle;rounded=0;orthogonalLoop=1;jettySize=auto;html=1;" edge="1" parent="1" source="bgkaT_zfcqGi3R_-l6v8-13" target="bgkaT_zfcqGi3R_-l6v8-3">
          <mxGeometry relative="1" as="geometry" />
        </mxCell>
        <mxCell id="bgkaT_zfcqGi3R_-l6v8-12" style="edgeStyle=orthogonalEdgeStyle;rounded=0;orthogonalLoop=1;jettySize=auto;html=1;entryX=0.5;entryY=0;entryDx=0;entryDy=0;" edge="1" parent="1" source="bgkaT_zfcqGi3R_-l6v8-13" target="bgkaT_zfcqGi3R_-l6v8-5">
          <mxGeometry relative="1" as="geometry" />
        </mxCell>
        <mxCell id="bgkaT_zfcqGi3R_-l6v8-13" value="Schema/Database Provisioning Process" style="rounded=1;whiteSpace=wrap;html=1;fontSize=12;glass=0;strokeWidth=1;shadow=0;" vertex="1" parent="1">
          <mxGeometry x="160" y="-40" width="120" height="40" as="geometry" />
        </mxCell>
        <mxCell id="bgkaT_zfcqGi3R_-l6v8-14" style="edgeStyle=orthogonalEdgeStyle;rounded=0;orthogonalLoop=1;jettySize=auto;html=1;entryX=0.661;entryY=-0.007;entryDx=0;entryDy=0;entryPerimeter=0;" edge="1" parent="1" source="bgkaT_zfcqGi3R_-l6v8-6" target="bgkaT_zfcqGi3R_-l6v8-9">
          <mxGeometry relative="1" as="geometry" />
        </mxCell>
        <mxCell id="bgkaT_zfcqGi3R_-l6v8-15" value="granted access to&amp;nbsp;" style="text;strokeColor=none;align=center;fillColor=none;html=1;verticalAlign=middle;whiteSpace=wrap;rounded=0;" vertex="1" parent="1">
          <mxGeometry x="190" y="70" width="60" height="30" as="geometry" />
        </mxCell>
        <mxCell id="bgkaT_zfcqGi3R_-l6v8-16" value="granted role to&amp;nbsp;" style="text;strokeColor=none;align=center;fillColor=none;html=1;verticalAlign=middle;whiteSpace=wrap;rounded=0;" vertex="1" parent="1">
          <mxGeometry x="420" y="70" width="60" height="30" as="geometry" />
        </mxCell>
        <mxCell id="bgkaT_zfcqGi3R_-l6v8-17" value="User" style="rounded=1;whiteSpace=wrap;html=1;fontSize=12;glass=0;strokeWidth=1;shadow=0;" vertex="1" parent="1">
          <mxGeometry x="440" y="280" width="120" height="40" as="geometry" />
        </mxCell>
        <mxCell id="bgkaT_zfcqGi3R_-l6v8-18" value="granted to&amp;nbsp;" style="text;strokeColor=none;align=center;fillColor=none;html=1;verticalAlign=middle;whiteSpace=wrap;rounded=0;" vertex="1" parent="1">
          <mxGeometry x="510" y="230" width="60" height="30" as="geometry" />
        </mxCell>
        <mxCell id="bgkaT_zfcqGi3R_-l6v8-19" value="Table/View" style="rounded=1;whiteSpace=wrap;html=1;fontSize=12;glass=0;strokeWidth=1;shadow=0;" vertex="1" parent="1">
          <mxGeometry x="40" y="170" width="120" height="40" as="geometry" />
        </mxCell>
        <mxCell id="bgkaT_zfcqGi3R_-l6v8-20" value="Created" style="text;strokeColor=none;align=center;fillColor=none;html=1;verticalAlign=middle;whiteSpace=wrap;rounded=0;" vertex="1" parent="1">
          <mxGeometry x="260" y="160" width="60" height="30" as="geometry" />
        </mxCell>
        <mxCell id="bgkaT_zfcqGi3R_-l6v8-21" value="under" style="text;strokeColor=none;align=center;fillColor=none;html=1;verticalAlign=middle;whiteSpace=wrap;rounded=0;" vertex="1" parent="1">
          <mxGeometry x="100" y="130" width="60" height="30" as="geometry" />
        </mxCell>
        <mxCell id="bgkaT_zfcqGi3R_-l6v8-22" value="Developer_FR is the table owner" style="text;strokeColor=none;align=center;fillColor=none;html=1;verticalAlign=middle;whiteSpace=wrap;rounded=0;" vertex="1" parent="1">
          <mxGeometry x="180" y="190" width="250" height="30" as="geometry" />
        </mxCell>
        <mxCell id="bgkaT_zfcqGi3R_-l6v8-23" value="1" style="text;strokeColor=none;align=center;fillColor=none;html=1;verticalAlign=middle;whiteSpace=wrap;rounded=0;" vertex="1" parent="1">
          <mxGeometry x="420" y="-60" width="60" height="30" as="geometry" />
        </mxCell>
        <mxCell id="bgkaT_zfcqGi3R_-l6v8-24" value="2" style="text;strokeColor=none;align=center;fillColor=none;html=1;verticalAlign=middle;whiteSpace=wrap;rounded=0;" vertex="1" parent="1">
          <mxGeometry x="420" y="140" width="60" height="30" as="geometry" />
        </mxCell>
        <mxCell id="bgkaT_zfcqGi3R_-l6v8-25" value="3" style="text;strokeColor=none;align=center;fillColor=none;html=1;verticalAlign=middle;whiteSpace=wrap;rounded=0;" vertex="1" parent="1">
          <mxGeometry x="140" y="-60" width="60" height="30" as="geometry" />
        </mxCell>
        <mxCell id="bgkaT_zfcqGi3R_-l6v8-26" value="4" style="text;strokeColor=none;align=center;fillColor=none;html=1;verticalAlign=middle;whiteSpace=wrap;rounded=0;" vertex="1" parent="1">
          <mxGeometry x="260" y="60" width="60" height="30" as="geometry" />
        </mxCell>
        <mxCell id="bgkaT_zfcqGi3R_-l6v8-27" value="4" style="text;strokeColor=none;align=center;fillColor=none;html=1;verticalAlign=middle;whiteSpace=wrap;rounded=0;" vertex="1" parent="1">
          <mxGeometry x="20" y="60" width="60" height="30" as="geometry" />
        </mxCell>
        <mxCell id="bgkaT_zfcqGi3R_-l6v8-28" value="5" style="text;strokeColor=none;align=center;fillColor=none;html=1;verticalAlign=middle;whiteSpace=wrap;rounded=0;" vertex="1" parent="1">
          <mxGeometry x="380" y="80" width="60" height="30" as="geometry" />
        </mxCell>
        <mxCell id="bgkaT_zfcqGi3R_-l6v8-29" value="6" style="text;strokeColor=none;align=center;fillColor=none;html=1;verticalAlign=middle;whiteSpace=wrap;rounded=0;" vertex="1" parent="1">
          <mxGeometry x="480" y="210" width="60" height="30" as="geometry" />
        </mxCell>
        <mxCell id="bgkaT_zfcqGi3R_-l6v8-30" value="7" style="text;strokeColor=none;align=center;fillColor=none;html=1;verticalAlign=middle;whiteSpace=wrap;rounded=0;" vertex="1" parent="1">
          <mxGeometry x="150" y="170" width="60" height="30" as="geometry" />
        </mxCell>
        <mxCell id="bgkaT_zfcqGi3R_-l6v8-42" style="edgeStyle=orthogonalEdgeStyle;rounded=0;orthogonalLoop=1;jettySize=auto;html=1;entryX=0;entryY=0.5;entryDx=0;entryDy=0;" edge="1" parent="1" source="bgkaT_zfcqGi3R_-l6v8-32" target="bgkaT_zfcqGi3R_-l6v8-19">
          <mxGeometry relative="1" as="geometry" />
        </mxCell>
        <mxCell id="bgkaT_zfcqGi3R_-l6v8-43" style="edgeStyle=orthogonalEdgeStyle;rounded=0;orthogonalLoop=1;jettySize=auto;html=1;entryX=0.5;entryY=0;entryDx=0;entryDy=0;" edge="1" parent="1" source="bgkaT_zfcqGi3R_-l6v8-32" target="bgkaT_zfcqGi3R_-l6v8-13">
          <mxGeometry relative="1" as="geometry" />
        </mxCell>
        <mxCell id="bgkaT_zfcqGi3R_-l6v8-32" value="Create new Functional role&amp;nbsp;&lt;div&gt;Ex: Analyst_FR&lt;/div&gt;" style="rounded=1;whiteSpace=wrap;html=1;fontSize=12;glass=0;strokeWidth=1;shadow=0;" vertex="1" parent="1">
          <mxGeometry x="310" y="-220" width="120" height="50" as="geometry" />
        </mxCell>
        <mxCell id="bgkaT_zfcqGi3R_-l6v8-39" value="" style="endArrow=classic;html=1;rounded=0;exitX=0.667;exitY=0;exitDx=0;exitDy=0;exitPerimeter=0;entryX=0.406;entryY=1;entryDx=0;entryDy=0;entryPerimeter=0;" edge="1" parent="1" source="bgkaT_zfcqGi3R_-l6v8-5" target="bgkaT_zfcqGi3R_-l6v8-32">
          <mxGeometry width="50" height="50" relative="1" as="geometry">
            <mxPoint x="360" y="50" as="sourcePoint" />
            <mxPoint x="360" y="-30" as="targetPoint" />
          </mxGeometry>
        </mxCell>
        <mxCell id="bgkaT_zfcqGi3R_-l6v8-44" value="&lt;b&gt;8&lt;/b&gt;" style="text;strokeColor=none;align=center;fillColor=none;html=1;verticalAlign=middle;whiteSpace=wrap;rounded=0;" vertex="1" parent="1">
          <mxGeometry x="290" y="-240" width="60" height="30" as="geometry" />
        </mxCell>
        <mxCell id="bgkaT_zfcqGi3R_-l6v8-45" value="&lt;b&gt;9&lt;/b&gt;" style="text;strokeColor=none;align=center;fillColor=none;html=1;verticalAlign=middle;whiteSpace=wrap;rounded=0;" vertex="1" parent="1">
          <mxGeometry x="200" y="-180" width="60" height="30" as="geometry" />
        </mxCell>
        <mxCell id="bgkaT_zfcqGi3R_-l6v8-46" value="Request to granted to database or schema" style="text;strokeColor=none;align=center;fillColor=none;html=1;verticalAlign=middle;whiteSpace=wrap;rounded=0;rotation=-90;" vertex="1" parent="1">
          <mxGeometry x="130" y="-130" width="150" height="30" as="geometry" />
        </mxCell>
        <mxCell id="bgkaT_zfcqGi3R_-l6v8-48" value="Granted to role" style="text;strokeColor=none;align=center;fillColor=none;html=1;verticalAlign=middle;whiteSpace=wrap;rounded=0;rotation=-90;" vertex="1" parent="1">
          <mxGeometry x="295" y="-90" width="150" height="30" as="geometry" />
        </mxCell>
        <mxCell id="bgkaT_zfcqGi3R_-l6v8-49" value="&lt;b&gt;10&lt;/b&gt;" style="text;strokeColor=none;align=center;fillColor=none;html=1;verticalAlign=middle;whiteSpace=wrap;rounded=0;" vertex="1" parent="1">
          <mxGeometry x="320" y="-160" width="60" height="30" as="geometry" />
        </mxCell>
        <mxCell id="bgkaT_zfcqGi3R_-l6v8-50" value="As Access role granted to functional role it has privilege on current and future tables&amp;nbsp;" style="text;strokeColor=none;align=center;fillColor=none;html=1;verticalAlign=middle;whiteSpace=wrap;rounded=0;rotation=-90;" vertex="1" parent="1">
          <mxGeometry x="-130" y="-10" width="260" height="30" as="geometry" />
        </mxCell>
        <mxCell id="bgkaT_zfcqGi3R_-l6v8-51" value="&lt;b&gt;11&lt;/b&gt;" style="text;strokeColor=none;align=center;fillColor=none;html=1;verticalAlign=middle;whiteSpace=wrap;rounded=0;" vertex="1" parent="1">
          <mxGeometry y="190" width="60" height="30" as="geometry" />
        </mxCell>
      </root>
    </mxGraphModel>
  </diagram>
</mxfile>
